<mxfile host="app.diagrams.net" modified="2024-05-25T14:13:20.403Z" agent="Mozilla/5.0 (Macintosh; Intel Mac OS X 10_15_7) AppleWebKit/537.36 (KHTML, like Gecko) Chrome/124.0.0.0 Safari/537.36" version="22.1.15" etag="XrQFJ_qeg2Q4gqMzqG6S" type="github">
  <diagram name="Page-1" id="9DYOU6UuXzU_0e_MuKwQ">
    <mxGraphModel>
      <root>
        <mxCell id="0" />
        <mxCell id="1" parent="0" />
      </root>
    </mxGraphModel>
  </diagram>
</mxfile>
